<mxfile host="app.diagrams.net" modified="2023-09-25T13:27:14.690Z" agent="Mozilla/5.0 (Windows NT 10.0; Win64; x64) AppleWebKit/537.36 (KHTML, like Gecko) Chrome/116.0.0.0 Safari/537.36" etag="7JIuPVejVqH5JRNMAnx4" version="21.6.6" type="github">
  <diagram name="Page-1" id="97916047-d0de-89f5-080d-49f4d83e522f">
    <mxGraphModel dx="1434" dy="782" grid="1" gridSize="10" guides="1" tooltips="1" connect="1" arrows="1" fold="1" page="1" pageScale="1.5" pageWidth="1169" pageHeight="827" background="none" math="0" shadow="0">
      <root>
        <mxCell id="0" />
        <mxCell id="1" parent="0" />
        <mxCell id="2" value="UNSW Student Network" style="rounded=1;fillColor=#d5e8d4;strokeColor=#82b366;shadow=1;fontStyle=1;fontSize=14;" parent="1" vertex="1">
          <mxGeometry x="760" y="190" width="200" height="60" as="geometry" />
        </mxCell>
        <mxCell id="4" value="Project development document" style="rounded=1;fillColor=#d5e8d4;strokeColor=#82b366;shadow=1;fontStyle=1;fontSize=14;" parent="1" vertex="1">
          <mxGeometry x="270" y="930" width="220" height="60" as="geometry" />
        </mxCell>
        <mxCell id="5" value="Platform design" style="rounded=1;fillColor=#d5e8d4;strokeColor=#82b366;shadow=1;fontStyle=1;fontSize=14;" parent="1" vertex="1">
          <mxGeometry x="520" y="440" width="200" height="60" as="geometry" />
        </mxCell>
        <mxCell id="6" value="project management" style="rounded=1;fillColor=#d5e8d4;strokeColor=#82b366;shadow=1;fontStyle=1;fontSize=14;" parent="1" vertex="1">
          <mxGeometry x="120" y="440" width="200" height="60" as="geometry" />
        </mxCell>
        <mxCell id="7" value="Cooperation" style="rounded=1;fillColor=#d5e8d4;strokeColor=#82b366;shadow=1;fontStyle=1;fontSize=14;" parent="1" vertex="1">
          <mxGeometry x="1220" y="100" width="200" height="60" as="geometry" />
        </mxCell>
        <mxCell id="32" value="" style="edgeStyle=elbowEdgeStyle;elbow=vertical;strokeWidth=4;endArrow=block;endFill=1;fontStyle=1;strokeColor=#82b366;fillColor=#d5e8d4;" parent="1" edge="1">
          <mxGeometry x="22" y="165.5" width="100" height="100" as="geometry">
            <mxPoint x="80" y="94.5" as="sourcePoint" />
            <mxPoint x="470" y="40" as="targetPoint" />
          </mxGeometry>
        </mxCell>
        <mxCell id="54" value="" style="edgeStyle=elbowEdgeStyle;elbow=vertical;strokeWidth=4;endArrow=none;endFill=0;fontStyle=1;strokeColor=#82b366;fillColor=#d5e8d4;exitX=0.5;exitY=1;exitDx=0;exitDy=0;entryX=0.5;entryY=0;entryDx=0;entryDy=0;" parent="1" source="2" target="6" edge="1">
          <mxGeometry x="22" y="165.5" width="100" height="100" as="geometry">
            <mxPoint x="358" y="244.5" as="sourcePoint" />
            <mxPoint x="220" y="480" as="targetPoint" />
            <Array as="points">
              <mxPoint x="290" y="390" />
            </Array>
          </mxGeometry>
        </mxCell>
        <mxCell id="spksn7wkr87Tgkmr4TmV-59" value="Text" style="edgeLabel;html=1;align=center;verticalAlign=middle;resizable=0;points=[];" vertex="1" connectable="0" parent="54">
          <mxGeometry relative="1" as="geometry">
            <mxPoint x="9" y="-78" as="offset" />
          </mxGeometry>
        </mxCell>
        <mxCell id="spksn7wkr87Tgkmr4TmV-58" value="" style="elbow=vertical;strokeWidth=4;endArrow=none;endFill=0;fontStyle=1;strokeColor=#82b366;fillColor=#d5e8d4;exitX=0.5;exitY=1;exitDx=0;exitDy=0;edgeStyle=orthogonalEdgeStyle;entryX=0;entryY=0.5;entryDx=0;entryDy=0;" edge="1" parent="1" source="6" target="4">
          <mxGeometry x="22" y="165.5" width="100" height="100" as="geometry">
            <mxPoint x="110" y="784.5" as="sourcePoint" />
            <mxPoint x="220" y="1010" as="targetPoint" />
          </mxGeometry>
        </mxCell>
        <mxCell id="spksn7wkr87Tgkmr4TmV-60" value="Project scope and objectives" style="rounded=1;fillColor=#d5e8d4;strokeColor=#82B366;shadow=1;fontStyle=1;fontSize=14;" vertex="1" parent="1">
          <mxGeometry x="270" y="540" width="220" height="60" as="geometry" />
        </mxCell>
        <mxCell id="spksn7wkr87Tgkmr4TmV-61" value="" style="endArrow=none;html=1;rounded=1;entryX=0;entryY=0.5;entryDx=0;entryDy=0;strokeColor=#82B366;strokeWidth=4;endFill=0;" edge="1" parent="1" target="spksn7wkr87Tgkmr4TmV-60">
          <mxGeometry width="50" height="50" relative="1" as="geometry">
            <mxPoint x="220" y="570" as="sourcePoint" />
            <mxPoint x="310" y="670" as="targetPoint" />
          </mxGeometry>
        </mxCell>
        <mxCell id="spksn7wkr87Tgkmr4TmV-62" value="Project funds and budget" style="rounded=1;fillColor=#d5e8d4;strokeColor=#82B366;shadow=1;fontStyle=1;fontSize=14;" vertex="1" parent="1">
          <mxGeometry x="270" y="630" width="220" height="60" as="geometry" />
        </mxCell>
        <mxCell id="spksn7wkr87Tgkmr4TmV-63" value="" style="endArrow=none;html=1;rounded=1;entryX=0;entryY=0.5;entryDx=0;entryDy=0;strokeColor=#82B366;strokeWidth=4;endFill=0;" edge="1" parent="1" target="spksn7wkr87Tgkmr4TmV-62">
          <mxGeometry width="50" height="50" relative="1" as="geometry">
            <mxPoint x="220" y="660" as="sourcePoint" />
            <mxPoint x="280" y="580" as="targetPoint" />
          </mxGeometry>
        </mxCell>
        <mxCell id="spksn7wkr87Tgkmr4TmV-64" value="Project stakeholders analysis" style="rounded=1;fillColor=#d5e8d4;strokeColor=#82B366;shadow=1;fontStyle=1;fontSize=14;" vertex="1" parent="1">
          <mxGeometry x="270" y="730" width="220" height="60" as="geometry" />
        </mxCell>
        <mxCell id="spksn7wkr87Tgkmr4TmV-65" value="" style="endArrow=none;html=1;rounded=1;entryX=0;entryY=0.5;entryDx=0;entryDy=0;strokeColor=#82B366;strokeWidth=4;endFill=0;" edge="1" parent="1" target="spksn7wkr87Tgkmr4TmV-64">
          <mxGeometry width="50" height="50" relative="1" as="geometry">
            <mxPoint x="220" y="760" as="sourcePoint" />
            <mxPoint x="280" y="670" as="targetPoint" />
          </mxGeometry>
        </mxCell>
        <mxCell id="spksn7wkr87Tgkmr4TmV-66" value="Project Schedule" style="rounded=1;fillColor=#d5e8d4;strokeColor=#82B366;shadow=1;fontStyle=1;fontSize=14;" vertex="1" parent="1">
          <mxGeometry x="270" y="830" width="220" height="60" as="geometry" />
        </mxCell>
        <mxCell id="spksn7wkr87Tgkmr4TmV-67" value="" style="endArrow=none;html=1;rounded=1;entryX=0;entryY=0.5;entryDx=0;entryDy=0;strokeColor=#82B366;strokeWidth=4;endFill=0;" edge="1" parent="1" target="spksn7wkr87Tgkmr4TmV-66">
          <mxGeometry width="50" height="50" relative="1" as="geometry">
            <mxPoint x="220" y="860" as="sourcePoint" />
            <mxPoint x="280" y="770" as="targetPoint" />
          </mxGeometry>
        </mxCell>
        <mxCell id="spksn7wkr87Tgkmr4TmV-71" value="" style="endArrow=none;html=1;rounded=1;entryX=0.5;entryY=0;entryDx=0;entryDy=0;strokeColor=#82B366;strokeWidth=4;endFill=0;" edge="1" parent="1" target="5">
          <mxGeometry width="50" height="50" relative="1" as="geometry">
            <mxPoint x="620" y="390" as="sourcePoint" />
            <mxPoint x="580" y="410" as="targetPoint" />
          </mxGeometry>
        </mxCell>
        <mxCell id="spksn7wkr87Tgkmr4TmV-72" value="" style="endArrow=none;html=1;rounded=1;strokeColor=#82B366;strokeWidth=4;endFill=0;exitX=0.5;exitY=1;exitDx=0;exitDy=0;" edge="1" parent="1" source="5">
          <mxGeometry width="50" height="50" relative="1" as="geometry">
            <mxPoint x="580" y="600" as="sourcePoint" />
            <mxPoint x="620" y="980" as="targetPoint" />
          </mxGeometry>
        </mxCell>
        <mxCell id="spksn7wkr87Tgkmr4TmV-74" value="UI design" style="rounded=1;fillColor=#d5e8d4;strokeColor=#82B366;shadow=1;fontStyle=1;fontSize=14;" vertex="1" parent="1">
          <mxGeometry x="680" y="540" width="220" height="60" as="geometry" />
        </mxCell>
        <mxCell id="spksn7wkr87Tgkmr4TmV-75" value="Database design" style="rounded=1;fillColor=#d5e8d4;strokeColor=#82B366;shadow=1;fontStyle=1;fontSize=14;" vertex="1" parent="1">
          <mxGeometry x="680" y="630" width="220" height="60" as="geometry" />
        </mxCell>
      </root>
    </mxGraphModel>
  </diagram>
</mxfile>
